<svg width="800px" height="800px" viewBox="0 0 20 20" xmlns="http://www.w3.org/2000/svg" fill="#fff" stroke="#fff">
  <g strokeWidth="0"/>
  <g strokeLinecap="round" strokeLinejoin="round"/>
  <g>
    <title>hamburger</title>
    <desc>Created with Sketch Beta.</desc>
    <g stroke="none" strokeWidth="1" fill="none" fillRule="evenodd">
      <g transform="translate(-212.000000, -888.000000)" fill="#2AA7FF">
        <path d="M230,904 L214,904 C212.896,904 212,904.896 212,906 C212,907.104 212.896,908 214,908 L230,908 C231.104,908 232,907.104 232,906 C232,904.896 231.104,904 230,904 Z M230,896 L214,896 C212.896,896 212,896.896 212,898 C212,899.104 212.896,900 214,900 L230,900 C231.104,900 232,899.104 232,898 C232,896.896 231.104,896 230,896 Z M214,892 L230,892 C231.104,892 232,891.104 232,890 C232,888.896 231.104,888 230,888 L214,888 C212.896,888 212,888.896 212,890 C212,891.104 212.896,892 214,892 Z"/>
      </g>
    </g>
  </g>
</svg>